<!-- <svg xmlns="http://www.w3.org/2000/svg" viewBox="0 0 24 24" fill="yellow" class="w-6 h-6">
  <path fill-rule="evenodd" d="M1.5 7.125c0-1.036.84-1.875 1.875-1.875h6c1.036 0 1.875.84 1.875 1.875v3.75c0 1.036-.84 1.875-1.875 1.875h-6A1.875 1.875 0 011.5 10.875v-3.75zm12 1.5c0-1.036.84-1.875 1.875-1.875h5.25c1.035 0 1.875.84 1.875 1.875v8.25c0 1.035-.84 1.875-1.875 1.875h-5.25a1.875 1.875 0 01-1.875-1.875v-8.25zM3 16.125c0-1.036.84-1.875 1.875-1.875h5.25c1.036 0 1.875.84 1.875 1.875v2.25c0 1.035-.84 1.875-1.875 1.875h-5.25A1.875 1.875 0 013 18.375v-2.25z" clip-rule="evenodd" />
</svg> -->

<svg xmlns="http://www.w3.org/2000/svg" viewBox="0 0 24 24" fill="yellow" class="w-6 h-6">
  <path fill-rule="evenodd" d="M11.097 1.515a.75.75 0 01.589.882L10.666 7.5h4.47l1.079-5.397a.75.75 0 111.47.294L16.665 7.5h3.585a.75.75 0 010 1.5h-3.885l-1.2 6h3.585a.75.75 0 010 1.5h-3.885l-1.08 5.397a.75.75 0 11-1.47-.294l1.02-5.103h-4.47l-1.08 5.397a.75.75 0 01-1.47-.294l1.02-5.103H3.75a.75.75 0 110-1.5h3.885l1.2-6H5.25a.75.75 0 010-1.5h3.885l1.08-5.397a.75.75 0 01.882-.588zM10.365 9l-1.2 6h4.47l1.2-6h-4.47z" clip-rule="evenodd" />
</svg>
